<?xml version="1.0" encoding="utf-8"?>
<!-- Generator: Adobe Illustrator 24.0.0, SVG Export Plug-In . SVG Version: 6.00 Build 0)  -->
<!DOCTYPE svg PUBLIC "-//W3C//DTD SVG 1.1//EN" "http://www.w3.org/Graphics/SVG/1.1/DTD/svg11.dtd" [
	<!ENTITY ns_extend "http://ns.adobe.com/Extensibility/1.0/">
	<!ENTITY ns_ai "http://ns.adobe.com/AdobeIllustrator/10.0/">
	<!ENTITY ns_graphs "http://ns.adobe.com/Graphs/1.0/">
	<!ENTITY ns_vars "http://ns.adobe.com/Variables/1.0/">
	<!ENTITY ns_imrep "http://ns.adobe.com/ImageReplacement/1.0/">
	<!ENTITY ns_sfw "http://ns.adobe.com/SaveForWeb/1.0/">
	<!ENTITY ns_custom "http://ns.adobe.com/GenericCustomNamespace/1.0/">
	<!ENTITY ns_adobe_xpath "http://ns.adobe.com/XPath/1.0/">
]>
<svg version="1.1" id="Calque_1" xmlns:x="&ns_extend;" xmlns:i="&ns_ai;" xmlns:graph="&ns_graphs;"
	 xmlns="http://www.w3.org/2000/svg" xmlns:xlink="http://www.w3.org/1999/xlink" x="0px" y="0px" width="411px" height="201px"
	 viewBox="0 0 411 201" style="enable-background:new 0 0 411 201;" xml:space="preserve">
<style type="text/css">
	.st0{fill:#FFFFFF;}
	.st1{font-family:'Gotham-Medium';}
	.st2{font-size:28.2903px;}
</style>
<metadata>
	<sfw  xmlns="&ns_sfw;">
		<slices></slices>
		<sliceSourceBounds  bottomLeftOrigin="true" height="16383" width="16383" x="-7782" y="-7961"></sliceSourceBounds>
	</sfw>
</metadata>
<g>
	<g>
		<path class="st0" d="M45.3,102.9l8.4-12c5.1,5.3,13,9.8,22.9,9.8c8.5,0,12.5-3.8,12.5-8c0-12.5-41.5-3.8-41.5-30.9
			c0-12,10.4-21.9,27.3-21.9c11.4,0,20.9,3.5,28.1,10l-8.5,11.4c-5.8-5.4-13.6-7.9-21-7.9c-6.5,0-10.2,2.8-10.2,7.1
			c0,11.3,41.4,3.7,41.4,30.6c0,13.2-9.5,23.1-28.8,23.1C62,114.3,52.1,109.7,45.3,102.9"/>
		<path class="st0" d="M253.7,40.9v29.5v14.8c0,8.2-2.9,15.1-8.6,20.9c-5.8,5.8-12.7,8.7-20.9,8.7c-8.2,0-15.1-2.9-20.9-8.7
			c-5.8-5.8-8.7-12.8-8.7-20.9V70.4V40.9h14.8v29.5v13.2v1.5c0,4.1,1.5,7.5,4.3,10.4c2.9,2.9,6.3,4.3,10.4,4.3c4,0,7.5-1.5,10.4-4.3
			c2.9-2.9,4.4-6.3,4.4-10.4v-1.5V70.4V40.9H253.7z"/>
		<path class="st0" d="M364.1,51.8c-7.2-7.2-16.7-10.8-26.8-10.8v0h-18.1v48.4l11.1,24.8h7c10.1,0,19.6-3.6,26.8-10.7
			C377.2,90.5,377.2,64.9,364.1,51.8 M353.3,93.6c-4.3,4.3-9.8,6-15.8,6h0h-3.5V55.6h3.4c6,0,11.7,1.7,15.9,6c4.3,4.3,6,10,6,16
			C359.2,83.7,357.6,89.3,353.3,93.6"/>
		<path class="st0" d="M286.7,39.7l-7.6,17.1l7.8,18.2l0,0l6.5,15.3h-13l3.2-7.4l-7.8-18.3l-17.3,38.7l40.9,0
			c1.6,3.7,3.3,7.4,4.9,11.1h15.8L286.7,39.7z"/>
		<path class="st0" d="M185.6,77.7c0-10.2-3.6-18.9-10.9-26.2c-7.3-7.3-16-10.9-26.2-10.9c-10.2,0-18.9,3.6-26.2,10.9
			c-7.2,7.3-10.9,16-10.9,26.2c0,10.2,3.6,19,10.9,26.2c7.2,7.2,16,10.9,26.2,10.9c7,0,13.2-1.7,18.8-5.1l17.7,9.2l-6.8-19.1
			C183.1,93.4,185.6,86,185.6,77.7 M164.2,93.3c-4.4,4.3-9.6,6.5-15.7,6.5c-6.1,0-11.4-2.2-15.7-6.5c-4.3-4.3-6.5-9.6-6.5-15.7
			c0-6.1,2.2-11.3,6.5-15.7c4.3-4.4,9.6-6.6,15.7-6.6c6.1,0,11.3,2.2,15.7,6.6c4.4,4.4,6.6,9.6,6.6,15.7
			C170.7,83.7,168.5,89,164.2,93.3"/>
	</g>
	<g>
		<text transform="matrix(1 0 0 1 67.0522 146.9941)" class="st0 st1 st2">AGENCE </text>
		<text transform="matrix(1 0 0 1 201.2041 146.9941)" class="st0 st1 st2">CRÉATIVE</text>
	</g>
</g>
</svg>
